<svg width="16" height="16" viewBox="0 0 16 16" fill="none" xmlns="http://www.w3.org/2000/svg">
<g id="Brand/car" clip-path="url(#clip0_1_926)">
<g id="Group">
<path id="Vector" d="M4 9C4 9.26522 3.89464 9.51957 3.70711 9.70711C3.51957 9.89464 3.26522 10 3 10C2.73478 10 2.48043 9.89464 2.29289 9.70711C2.10536 9.51957 2 9.26522 2 9C2 8.73478 2.10536 8.48043 2.29289 8.29289C2.48043 8.10536 2.73478 8 3 8C3.26522 8 3.51957 8.10536 3.70711 8.29289C3.89464 8.48043 4 8.73478 4 9ZM14 9C14 9.26522 13.8946 9.51957 13.7071 9.70711C13.5196 9.89464 13.2652 10 13 10C12.7348 10 12.4804 9.89464 12.2929 9.70711C12.1054 9.51957 12 9.26522 12 9C12 8.73478 12.1054 8.48043 12.2929 8.29289C12.4804 8.10536 12.7348 8 13 8C13.2652 8 13.5196 8.10536 13.7071 8.29289C13.8946 8.48043 14 8.73478 14 9ZM6 8C5.73478 8 5.48043 8.10536 5.29289 8.29289C5.10536 8.48043 5 8.73478 5 9C5 9.26522 5.10536 9.51957 5.29289 9.70711C5.48043 9.89464 5.73478 10 6 10H10C10.2652 10 10.5196 9.89464 10.7071 9.70711C10.8946 9.51957 11 9.26522 11 9C11 8.73478 10.8946 8.48043 10.7071 8.29289C10.5196 8.10536 10.2652 8 10 8H6ZM4.862 4.276L3.906 6.19C3.86691 6.27065 3.84977 6.36018 3.8563 6.44957C3.86283 6.53896 3.8928 6.62505 3.94319 6.69917C3.99358 6.77329 4.06262 6.83282 4.14334 6.87176C4.22406 6.9107 4.31362 6.92769 4.403 6.921C5.313 6.848 6.753 6.751 8 6.751C9.247 6.751 10.688 6.848 11.597 6.921C11.6864 6.92769 11.7759 6.9107 11.8567 6.87176C11.9374 6.83282 12.0064 6.77329 12.0568 6.69917C12.1072 6.62505 12.1372 6.53896 12.1437 6.44957C12.1502 6.36018 12.1331 6.27065 12.094 6.19L11.138 4.277C11.0966 4.19387 11.0328 4.12391 10.9539 4.07499C10.8749 4.02606 10.7839 4.0001 10.691 4H5.309C5.21622 4 5.12527 4.02582 5.04633 4.07456C4.96739 4.12331 4.90356 4.19305 4.862 4.276Z" fill="#101828"/>
<path id="Vector_2" d="M2.52 3.515C2.7129 3.065 3.0337 2.68155 3.44257 2.41223C3.85144 2.1429 4.3304 1.99957 4.82 2H11.182C12.182 2 13.086 2.596 13.48 3.515L14.272 5.363C14.347 5.538 14.482 5.682 14.652 5.767C15.152 6.017 15.507 6.482 15.617 7.029L15.952 8.708C15.9853 8.86933 16.0017 9.03267 16.001 9.198V9.611C16.001 10.425 15.611 11.154 15.001 11.608V13.5C15.001 13.6326 14.9483 13.7598 14.8546 13.8536C14.7608 13.9473 14.6336 14 14.501 14H12.501C12.3684 14 12.2412 13.9473 12.1474 13.8536C12.0537 13.7598 12.001 13.6326 12.001 13.5V12.162C10.709 12.21 9.256 12.25 8.001 12.25C6.746 12.25 5.293 12.21 4.001 12.162V13.5C4.001 13.6326 3.94832 13.7598 3.85455 13.8536C3.76078 13.9473 3.63361 14 3.501 14H1.501C1.36839 14 1.24121 13.9473 1.14745 13.8536C1.05368 13.7598 1.001 13.6326 1.001 13.5V11.608C0.390999 11.154 0.000999451 10.425 0.000999451 9.611V9.198C0.00116728 9.03345 0.0175802 8.86932 0.0499995 8.708L0.384999 7.028C0.494999 6.482 0.849999 6.016 1.349 5.767C1.52016 5.68215 1.65531 5.53884 1.73 5.363L2.522 3.515H2.52ZM4.82 3C4.5263 3.00002 4.23906 3.08626 3.99392 3.24803C3.74878 3.4098 3.55652 3.63997 3.441 3.91L2.649 5.757C2.48102 6.15006 2.17865 6.47051 1.796 6.661C1.68579 6.71563 1.58966 6.79493 1.51508 6.89275C1.44051 6.99056 1.38949 7.10426 1.366 7.225L1.03 8.904C1.01035 9.00077 1.0003 9.09925 0.999999 9.198V9.611C0.999999 10.407 1.62 11.059 2.408 11.095C3.963 11.165 6.194 11.25 8 11.25C9.806 11.25 12.037 11.166 13.592 11.095C13.9726 11.0765 14.3314 10.9118 14.5937 10.6354C14.8559 10.359 15.0015 9.99205 15 9.611V9.198C15 9.09933 14.99 9.00133 14.97 8.904L14.635 7.224C14.6114 7.10344 14.5603 6.98994 14.4857 6.89231C14.4111 6.79468 14.3151 6.71553 14.205 6.661C13.8223 6.47051 13.52 6.15006 13.352 5.757L12.56 3.909C12.4443 3.639 12.2518 3.40893 12.0065 3.24734C11.7611 3.08574 11.4738 2.99974 11.18 3H4.82Z" fill="#101828"/>
</g>
</g>
<defs>
<clipPath id="clip0_1_926">
<rect width="16" height="16" fill="white"/>
</clipPath>
</defs>
</svg>
